Coordinates
nRows=17
nColumns=24

# SIMM Motion File Header:
name Coordinates
datacolumns 24
datarows 17
otherdata 1
range 0.87500000000000000000 0.89100000000000001000

Units are S.I. units (second, meters, Newtons, ...)
Angles are in degrees.

endheader
time	pelvis_tx	pelvis_ty	pelvis_tz	pelvis_tilt	pelvis_list	pelvis_rotation	hip_flexion_r	hip_adduction_r	hip_rotation_r	knee_angle_r	ankle_angle_r	subtalar_angle_r	mtp_angle_r	hip_flexion_l	hip_adduction_l	hip_rotation_l	knee_angle_l	ankle_angle_l	subtalar_angle_l	mtp_angle_l	lumbar_extension	lumbar_bending	lumbar_rotation
      0.87500000000000000000	      0.61204536026209733000	      1.02083794948974440000	      0.03179654166970069500	      4.99276541847644490000	     -1.85458498911085280000	      3.19111473584491370000	      9.33033737188305600000	      2.45392419874530620000	     -7.03293203653604500000	    -20.04899677998592400000	      5.49740159017683720000	     -0.00094485411695268426	      0.03788413398630730700	      5.80688953477583420000	     -7.20122278159661370000	     -4.31587414317243920000	    -67.55058345283232800000	     -5.39742069162992080000	     -0.00105975597533856070	      0.03291384987010755700	    -15.39435745185669000000	      4.97633715728904490000	     -3.45030557696444350000
      0.87600000000000000000	      0.61201128201310273000	      1.02102336386599820000	      0.03197990037366185000	      4.99759328812004360000	     -1.85171484082613770000	      3.17747123612270470000	      9.22171041404705600000	      2.47265335750620620000	     -7.01533308275169440000	    -19.97243453934183700000	      5.51776776010547640000	     -0.00025037292121404158	      0.03696698635053536500	      5.94524883628177570000	     -7.20613105000574810000	     -4.32909181271513250000	    -67.64166555460190000000	     -5.31314156692581640000	     -0.00108701386194013380	      0.03289292153245221300	    -15.39867119364115500000	      4.96505220650123040000	     -3.41223234154032620000
      0.87700000000000000000	      0.61197645271341539000	      1.02120843594618420000	      0.03216198008059752800	      5.00235052585684150000	     -1.84816417193294160000	      3.16353133272890790000	      9.11305833310397520000	      2.49054454930645840000	     -6.99718398774305240000	    -19.89554600810071200000	      5.53791974894715540000	      0.00045514062442261505	      0.03603760385495945200	      6.08291305828984990000	     -7.20929943211712220000	     -4.34122746064789670000	    -67.72949245856578700000	     -5.22775781575256730000	     -0.00111415178136236590	      0.03286898514860461800	    -15.40301144937995500000	      4.95302058742086700000	     -3.37413884696074230000
      0.87800000000000000000	      0.61194086947362758000	      1.02139313107234100000	      0.03234277593326285300	      5.00703537745873280000	     -1.84393932736560220000	      3.14929502556226380000	      9.00438812797497510000	      2.50760177904926400000	     -6.97848860671020170000	    -19.81834546834042100000	      5.55787198784883870000	      0.00117257652465340780	      0.03509678198860041700	      6.21989162280184700000	     -7.21073764717085460000	     -4.35229385334166350000	    -67.81408156650512400000	     -5.14133575079980250000	     -0.00114117937099271830	      0.03284209886319998400	    -15.40737678413873200000	      4.94025094719772100000	     -3.33602706868736250000
      0.87900000000000000000	      0.61190452951544272000	      1.02157741427303980000	      0.03252228367350910200	      5.01164617730667490000	     -1.83904694207618320000	      3.13476253014951340000	      8.89570667715430650000	      2.52382936276701740000	     -6.95925126911445080000	    -19.74084683523873500000	      5.57763733605127500000	      0.00190570580184661640	      0.03414792425921456300	      6.35619393165646060000	     -7.21045638507030070000	     -4.36230414301737210000	    -67.89545038264927300000	     -5.05394139520868360000	     -0.00116814705335628450	      0.03281231883858409100	    -15.41176581720153700000	      4.92675217360689380000	     -3.29789909283861290000
      0.88000000000000000000	      0.61186742974550556000	      1.02176125184726540000	      0.03270049991597553900	      5.01618132970636130000	     -1.83349411405922760000	      3.11993418521017360000	      8.78702094805807120000	      2.53923224951857310000	     -6.93947666154545480000	    -19.66306444545306300000	      5.59722997274605930000	      0.00265531672299430810	      0.03319170100430352000	      6.49182935847092590000	     -7.20846752840181090000	     -4.37127197231415380000	    -67.97361652390732400000	     -4.96564041608353610000	     -0.00119506257067452170	      0.03277970249427519100	    -15.41617723792371600000	      4.91253354283502390000	     -3.25975697555892910000
      0.88100000000000001000	      0.61182956672882083000	      1.02194461160089680000	      0.03287742211949189900	      5.02063931433731890000	     -1.82728838460054170000	      3.10481046140463010000	      8.67833796496301700000	      2.55381598761429900000	     -6.91916983438471520000	    -19.58501300315252900000	      5.61666527302212510000	      0.00341966359683086320	      0.03222627301403903400	      6.62680722292799370000	     -7.20478411925952940000	     -4.37921145583966260000	    -68.04859769893103300000	     -4.87649808030058730000	     -0.00122189656155776650	      0.03274430804156766600	    -15.42060981255783700000	      4.89760469902951100000	     -3.22160275454159260000
      0.88200000000000001000	      0.61179093696518227000	      1.02212746189453750000	      0.03305304845460689500	      5.02501870038283280000	     -1.82043764168782720000	      3.08939200680519570000	      8.56966469875964880000	      2.56758655471577990000	     -6.89833625948219350000	    -19.50670718995066400000	      5.63595831446421070000	      0.00419739106494159370	      0.03125001530360276700	      6.76113676967562770000	     -7.19942022765248790000	     -4.38613711688183990000	    -68.12041167226786300000	     -4.78657921915571280000	     -0.00124862363831783670	      0.03270619283922420600	    -15.42506237832916400000	      4.88197557041549320000	     -3.18343851831657300000
      0.88300000000000001000	      0.61175153713653407000	      1.02230977080723660000	      0.03322737772466851500	      5.02931815719768770000	     -1.81295004757647660000	      3.07367967914467850000	      8.46100798853396090000	      2.58055023195005040000	     -6.87698185506829060000	    -19.42816135076300200000	      5.65512269250847680000	      0.00498937850957478780	      0.03026360018882791300	      6.89482715225032900000	     -7.19239085000721710000	     -4.39206384104209140000	    -68.18907623198798300000	     -4.69594819031745910000	     -0.00127525233094545050	      0.03266541221184529600	    -15.42953383638075400000	      4.86565630502001150000	     -3.14526645658785360000
      0.88400000000000001000	      0.61171136406457194000	      1.02249150640687270000	      0.03340040936353220300	      5.03353645565100210000	     -1.80483403139832620000	      3.05767454522143960000	      8.35237453227683520000	      2.59271359114751080000	     -6.85511297987326800000	    -19.34938947950106000000	      5.67417039025935650000	      0.00579868858089747140	      0.02927018022610329900	      7.02788741266281920000	     -7.18371189110549580000	     -4.39700687014601850000	    -68.25460917091595500000	     -4.60466883285353750000	     -0.00130182560606643980	      0.03262201957454789100	    -15.43402315584155300000	      4.84865726046762100000	     -3.10708885952600820000
      0.88500000000000001000	      0.61167041431791580000	      1.02267263812150940000	      0.03357214364580792000	      5.03767245244257820000	     -1.79609843841406880000	      3.04137780141712350000	      8.24377106730063500000	      2.60408377621918290000	     -6.83273634576102930000	    -19.27040593625967800000	      5.69311455566689780000	      0.00662583092585083270	      0.02827036095339877800	      7.16032646867648740000	     -7.17340035925736520000	     -4.40098188788523450000	    -68.31702829407203100000	     -4.51280440404723130000	     -0.00132834849392476010	      0.03257606946911528100	    -15.43852939090640000000	      4.83098913479357520000	     -3.06890799482739980000
      0.88600000000000001000	      0.61162868419383776000	      1.02285313692338530000	      0.03374258165153792800	      5.04172509534275190000	     -1.78675250999423850000	      3.02479078163934020000	      8.13520434016008840000	      2.61466847026905920000	     -6.80985901540100260000	    -19.19122539399614900000	      5.71196937523385450000	      0.00746928939484042820	      0.02726243703482046300	      7.29215308872957730000	     -7.16147433394033510000	     -4.40400500202469480000	    -68.37635139749789900000	     -4.42041753528732520000	     -0.00135479389385375640	      0.03252761711051144900	    -15.44305168710958600000	      4.81266294705296630000	     -3.03072611807208460000
      0.88700000000000001000	      0.61158616997916027000	      1.02303297448064920000	      0.03391172516144118400	      5.04569343588584380000	     -1.77680579677474880000	      3.00791499680030630000	      8.02668101084191930000	      2.62447574001061180000	     -6.78648843702885070000	    -19.11186247684136000000	      5.73074865385429530000	      0.00832811575254367720	      0.02624495617757905500	      7.42337587331632860000	     -7.14795284431742230000	     -4.40609268966721320000	    -68.43259623332987500000	     -4.32757019578648270000	     -0.00138113959135900540	      0.03247671689591193100	    -15.44758927444861400000	      4.79368996015920250000	     -2.99254553399974780000
      0.88800000000000001000	      0.61154286817727121000	      1.02321212243653270000	      0.03407957661733954100	      5.04957663834362780000	     -1.76626809954917400000	      2.99075216033187980000	      7.91820759056274690000	      2.63351393493318180000	     -6.76263248291991110000	    -19.03233148352312700000	      5.74946472619035820000	      0.00920291265637940980	      0.02521854400294961500	      7.55400324164063970000	     -7.13285578345064230000	     -4.40726176056570560000	    -68.48578047945086700000	     -4.23432365253360300000	     -0.00140739126683593400	      0.03242342130384413800	    -15.45214145952348300000	      4.77408162591780180000	     -2.95436863734476460000
      0.88900000000000001000	      0.61149877547523046000	      1.02339055263057930000	      0.03424613911533144800	      5.05337398110571630000	     -1.75514946339113040000	      2.97330418727509290000	      7.80979043472871480000	      2.64179168108338920000	     -6.73829945182528520000	    -18.95264637721656000000	      5.76812834805405480000	      0.01009561014491925900	      0.02418603097784893800	      7.68404341201666520000	     -7.11620389419018370000	     -4.40752935101887290000	    -68.53592172094359100000	     -4.14073842491733580000	     -0.00143358190573740890	      0.03236778101586933900	    -15.45670762912682200000	      4.75384957763619200000	     -2.91619791090831230000
      0.89000000000000001000	      0.61145388840495740000	      1.02356823823986650000	      0.03441141653484909600	      5.05708484479954200000	     -1.74346029949223550000	      2.95557312922774470000	      7.70143589168289640000	      2.64931811355866210000	     -6.71349797232470990000	    -18.87282142371838800000	      5.78675127037930000000	      0.01100633808015993700	      0.02314794716811268200	      7.81350438536732030000	     -7.09801893267640780000	     -4.40691298901450960000	    -68.58303745306048400000	     -4.04687422533413880000	     -0.00145971312370524640	      0.03230984773637027300	    -15.46128726740489700000	      4.73300574203260460000	     -2.87803582239525200000
      0.89100000000000001000	      0.61140820333593315000	      1.02374515391203010000	      0.03457541349616889700	      5.06070871724157720000	     -1.73121136597699920000	      2.93756118082252060000	      7.59315027653310890000	      2.65610284769656110000	     -6.68823699572626750000	    -18.79287114230075800000	      5.80534610982665010000	      0.01193391548794806700	      0.02210276003047851800	      7.94239392130509360000	     -7.07832363875811770000	     -4.40543057785331360000	    -68.62714505989120500000	     -3.95278991494975470000	     -0.00148576052689862290	      0.03224967375424235600	    -15.46587996121735600000	      4.71156232206815950000	     -2.83988483251134390000
